<?xml version="1.0" encoding="UTF-8" standalone="no"?>
<!-- Created with Inkscape (http://www.inkscape.org/) -->

<svg
   xmlns:dc="http://purl.org/dc/elements/1.1/"
   xmlns:cc="http://creativecommons.org/ns#"
   xmlns:rdf="http://www.w3.org/1999/02/22-rdf-syntax-ns#"
   xmlns:svg="http://www.w3.org/2000/svg"
   xmlns="http://www.w3.org/2000/svg"
   xmlns:sodipodi="http://sodipodi.sourceforge.net/DTD/sodipodi-0.dtd"
   xmlns:inkscape="http://www.inkscape.org/namespaces/inkscape"
   width="21.166666mm"
   height="21.166666mm"
   viewBox="0 0 21.166666 21.166666"
   version="1.1"
   id="svg4611"
   sodipodi:docname="icon.svg"
   inkscape:version="0.92.3 (2405546, 2018-03-11)">
  <defs
     id="defs4605" />
  <sodipodi:namedview
     id="base"
     pagecolor="#ffffff"
     bordercolor="#666666"
     borderopacity="1.0"
     inkscape:pageopacity="0.0"
     inkscape:pageshadow="2"
     inkscape:zoom="1.979899"
     inkscape:cx="-21.007411"
     inkscape:cy="31.806134"
     inkscape:document-units="mm"
     inkscape:current-layer="layer1"
     showgrid="false"
     fit-margin-top="0"
     fit-margin-left="0"
     fit-margin-right="0"
     fit-margin-bottom="0"
     inkscape:window-width="1920"
     inkscape:window-height="984"
     inkscape:window-x="0"
     inkscape:window-y="27"
     inkscape:window-maximized="1" />
  <metadata
     id="metadata4608">
    <rdf:RDF>
      <cc:Work
         rdf:about="">
        <dc:format>image/svg+xml</dc:format>
        <dc:type
           rdf:resource="http://purl.org/dc/dcmitype/StillImage" />
        <dc:title></dc:title>
      </cc:Work>
    </rdf:RDF>
  </metadata>
  <g
     inkscape:label="Ebene 1"
     inkscape:groupmode="layer"
     id="layer1"
     transform="translate(-68.791664,-159.41666)">
    <path
       inkscape:connector-curvature="0"
       style="fill:#ffcc00;stroke:none;stroke-width:0.33640015px;stroke-linecap:butt;stroke-linejoin:miter;stroke-opacity:1"
       d="m 79.375,160.73954 c -1.605267,0.25769 -4.919501,2.26034 -6.138127,4.10673 -1.22347,1.85373 -1.791105,3.91143 -1.799889,5.87871 0.0019,-0.003 0.0038,-0.005 0.0057,-0.008 1.540412,-2.05118 3.987834,-2.9514 6.664192,-2.9378 3.116519,0.0158 6.540521,1.26771 9.196856,3.37188 0.07911,-2.75291 -1.119026,-5.55566 -3.831291,-7.2409 1.032214,3.48733 -5.400291,0.13826 -4.097425,-3.17035 z m 7.928716,10.41125 c -0.01095,0.38122 -0.04752,0.7612 -0.106972,1.1374 0.05959,-0.3764 0.09601,-0.75598 0.106972,-1.1374 z m -15.866732,-0.42116 c -2.65e-4,0.0918 0.0021,0.18299 0.0041,0.2744 -0.0021,-0.0913 -0.0045,-0.18266 -0.0041,-0.2744 z m 0.01188,0.5116 c 0.0043,0.0948 0.0091,0.18945 0.01603,0.2837 -0.0069,-0.0942 -0.0117,-0.1889 -0.01603,-0.2837 z m 0.03772,0.51728 c 0.01484,0.15305 0.03258,0.30521 0.05426,0.4563 -0.02164,-0.15106 -0.03943,-0.30329 -0.05426,-0.4563 z m 15.698266,0.60358 c -0.03865,0.23196 -0.08588,0.46241 -0.142626,0.69039 0.05686,-0.22807 0.103896,-0.45834 0.142626,-0.69039 z m -15.613001,0.0563 c 0.0159,0.0966 0.03247,0.19272 0.05116,0.28835 -0.01868,-0.0957 -0.03525,-0.19169 -0.05116,-0.28835 z m 0.0956,0.49712 c 0.03154,0.1445 0.066,0.28755 0.10387,0.42943 -0.0378,-0.14175 -0.07238,-0.28507 -0.10387,-0.42943 z M 87.030853,173.1 c -0.03064,0.1203 -0.06411,0.23978 -0.09974,0.35863 0.03573,-0.11895 0.06901,-0.23822 0.09974,-0.35863 z m -0.119372,0.41961 c -0.06307,0.20497 -0.133581,0.40756 -0.211357,0.6072 0.07796,-0.19974 0.148142,-0.40213 0.211357,-0.6072 z m -15.076083,0.0574 c 0.02532,0.0861 0.05192,0.17139 0.07958,0.25631 -0.02766,-0.085 -0.05426,-0.17019 -0.07958,-0.25631 z m 0.14986,0.46199 c 0.04365,0.12406 0.08983,0.24662 0.138494,0.36793 -0.0486,-0.12126 -0.0949,-0.24393 -0.138494,-0.36793 z m 14.65027,0.24856 c -0.0614,0.14879 -0.127323,0.29574 -0.196887,0.4408 0.06971,-0.14512 0.135358,-0.29194 0.196887,-0.4408 z m -14.405325,0.37775 c 0.03164,0.0723 0.06525,0.1433 0.0987,0.21446 -0.03342,-0.0712 -0.06708,-0.14216 -0.0987,-0.21446 z m 14.0963,0.29043 c -0.04429,0.0858 -0.09027,0.17058 -0.137459,0.25476 0.04728,-0.0842 0.09308,-0.16899 0.137459,-0.25476 z m -13.876159,0.17208 c 0.03037,0.0596 0.06032,0.11955 0.09199,0.17828 -0.03168,-0.0588 -0.0616,-0.11859 -0.09199,-0.17828 z m 13.570234,0.36794 c -0.05823,0.0949 -0.118324,0.18861 -0.18035,0.28112 0.06215,-0.0925 0.122007,-0.1862 0.18035,-0.28112 z m -13.260168,0.19171 c 0.03343,0.055 0.06873,0.10825 0.103351,0.16227 -0.03458,-0.054 -0.06996,-0.10735 -0.103351,-0.16227 z m 12.890686,0.35916 c -0.201735,0.27615 -0.419137,0.54141 -0.655773,0.79065 0.236837,-0.24913 0.453824,-0.51462 0.655773,-0.79065 z m -0.655773,0.79065 c -0.270155,0.28453 -0.563031,0.54957 -0.877467,0.79271 0.314672,-0.24305 0.607052,-0.50827 0.877467,-0.79271 z m -11.978597,-0.75706 c 0.04155,0.0602 0.08301,0.12038 0.126089,0.17931 -0.04303,-0.0589 -0.08459,-0.11912 -0.126089,-0.17931 z m 0.386021,0.51728 c 0.0327,0.04 0.06732,0.078 0.10077,0.1173 -0.03339,-0.0392 -0.06813,-0.0774 -0.10077,-0.1173 z m 0.325045,0.36948 c 0.0379,0.0407 0.07596,0.0811 0.114722,0.12093 -0.03871,-0.0398 -0.07687,-0.0803 -0.114722,-0.12093 z m 0.406178,0.40567 c 0.02855,0.0263 0.05734,0.0522 0.0863,0.078 -0.02896,-0.0258 -0.05775,-0.0517 -0.0863,-0.078 z m 9.974068,0.26509 c -0.09531,0.0735 -0.193202,0.14418 -0.292489,0.21343 0.0993,-0.0692 0.197157,-0.14004 0.292489,-0.21343 z m -9.57461,0.0754 c 0.04319,0.0343 0.08674,0.068 0.130742,0.10129 -0.04392,-0.0333 -0.08764,-0.067 -0.130742,-0.10129 z m 9.233546,0.17157 c -0.08813,0.0605 -0.178041,0.11919 -0.269235,0.17621 0.09128,-0.057 0.181018,-0.11576 0.269235,-0.17621 z m -8.791194,0.15296 c 0.02659,0.018 0.0522,0.0372 0.07906,0.0548 -0.02686,-0.0176 -0.05248,-0.0368 -0.07906,-0.0548 z m 8.455813,0.0646 c -0.107772,0.0659 -0.216722,0.12977 -0.328662,0.19068 0.111884,-0.0608 0.220932,-0.12492 0.328662,-0.19068 z m -0.328662,0.19068 c -0.117759,0.0641 -0.238377,0.12507 -0.360702,0.18345 0.122349,-0.0583 0.242912,-0.1194 0.360702,-0.18345 z m -7.650179,0.0408 c 0.04362,0.0246 0.08804,0.0481 0.132292,0.0718 -0.04423,-0.0237 -0.08869,-0.0472 -0.132292,-0.0718 z m 7.259505,0.15658 c -0.105843,0.0499 -0.213254,0.0976 -0.322461,0.14314 0.109191,-0.0455 0.216625,-0.0932 0.322461,-0.14314 z m -6.78408,0.0873 c 0.03472,0.0162 0.0688,0.0334 0.103867,0.0491 -0.03505,-0.0157 -0.06916,-0.0329 -0.103867,-0.0491 z m 6.370153,0.0925 c -0.09178,0.0369 -0.18496,0.0722 -0.279053,0.10593 0.09423,-0.0337 0.187134,-0.069 0.279053,-0.10593 z m -5.817216,0.13901 c 0.04039,0.0148 0.08167,0.0282 0.122473,0.0424 -0.0408,-0.0141 -0.0821,-0.0275 -0.122473,-0.0424 z m 5.432226,0.004 c -0.09391,0.0321 -0.189103,0.0626 -0.285255,0.0915 0.09619,-0.0289 0.191296,-0.0593 0.285255,-0.0915 z m -0.390157,0.12298 c -0.119825,0.0342 -0.241115,0.0656 -0.364318,0.0946 0.123026,-0.029 0.244655,-0.0605 0.364318,-0.0946 z m -4.551143,0.0315 c 0.048,0.0138 0.09564,0.028 0.144177,0.0408 -0.0485,-0.0128 -0.09621,-0.0271 -0.144177,-0.0408 z m 4.157885,0.0703 c -0.132101,0.0306 -0.266629,0.0582 -0.402558,0.0827 0.136054,-0.0245 0.27033,-0.052 0.402558,-0.0827 z m -3.526399,0.0827 c 0.03165,0.006 0.06426,0.0103 0.09612,0.016 -0.03186,-0.006 -0.06447,-0.01 -0.09612,-0.016 z m 3.001368,0.0196 c -0.0967,0.016 -0.193908,0.0311 -0.292489,0.0439 0.09861,-0.0128 0.195762,-0.028 0.292489,-0.0439 z m -2.463933,0.0615 c 0.04586,0.005 0.09172,0.0108 0.137975,0.0155 -0.04624,-0.005 -0.09213,-0.01 -0.137975,-0.0155 z m 2.00918,0.001 c -0.08834,0.01 -0.177363,0.0186 -0.267168,0.0258 0.08981,-0.007 0.178824,-0.016 0.267168,-0.0258 z m -0.432014,0.0377 c -0.0947,0.006 -0.190527,0.01 -0.286806,0.0129 0.09631,-0.003 0.192074,-0.007 0.286806,-0.0129 z m -0.890903,0.015 c 0.150569,0.005 0.298969,0.005 0.445966,0.003 -0.147042,0.002 -0.295344,0.002 -0.445966,-0.003 z"
       id="path26" />
    <path
       inkscape:connector-curvature="0"
       style="fill:#ffd5d5;stroke:none;stroke-width:0.33640015px;stroke-linecap:butt;stroke-linejoin:miter;stroke-opacity:1"
       d="m 78.10686,167.7789 c -2.676358,-0.0136 -5.123781,0.88663 -6.664193,2.93781 -0.0021,0.003 -0.0037,0.006 -0.0057,0.009 -0.01953,4.42341 2.794489,8.38694 7.390246,8.53023 5.266745,0.16422 8.356002,-3.91239 8.476485,-8.10493 -2.656334,-2.10417 -6.080336,-3.35608 -9.196855,-3.37189 z"
       id="path28" />
    <ellipse
       style="fill:#916f6f;stroke:none;stroke-width:0.37041685"
       id="path33"
       cx="76.729164"
       cy="171.32291"
       rx="1.3229167"
       ry="1.3229179" />
    <ellipse
       cy="171.32291"
       cx="82.020836"
       id="circle35"
       style="fill:#916f6f;stroke:none;stroke-width:0.37041694"
       rx="1.3229173"
       ry="1.3229179" />
  </g>
</svg>
