<?xml version="1.0" encoding="UTF-8" standalone="no"?>
<!-- Created with Inkscape (http://www.inkscape.org/) -->

<svg
   xmlns:dc="http://purl.org/dc/elements/1.1/"
   xmlns:cc="http://creativecommons.org/ns#"
   xmlns:rdf="http://www.w3.org/1999/02/22-rdf-syntax-ns#"
   xmlns:svg="http://www.w3.org/2000/svg"
   xmlns="http://www.w3.org/2000/svg"
   xmlns:sodipodi="http://sodipodi.sourceforge.net/DTD/sodipodi-0.dtd"
   xmlns:inkscape="http://www.inkscape.org/namespaces/inkscape"
   width="74.353912mm"
   height="21.166666mm"
   viewBox="0 0 74.353913 21.166666"
   version="1.1"
   id="svg4697"
   inkscape:version="0.92.3 (2405546, 2018-03-11)"
   sodipodi:docname="logo.svg">
  <defs
     id="defs4691" />
  <sodipodi:namedview
     id="base"
     pagecolor="#ffffff"
     bordercolor="#666666"
     borderopacity="1.0"
     inkscape:pageopacity="0.0"
     inkscape:pageshadow="2"
     inkscape:zoom="2.8"
     inkscape:cx="137.5019"
     inkscape:cy="56.029057"
     inkscape:document-units="mm"
     inkscape:current-layer="layer1"
     showgrid="false"
     inkscape:snap-bbox="true"
     fit-margin-top="0"
     fit-margin-left="0"
     fit-margin-right="0"
     fit-margin-bottom="0"
     inkscape:window-width="1920"
     inkscape:window-height="984"
     inkscape:window-x="0"
     inkscape:window-y="27"
     inkscape:window-maximized="1"
     inkscape:snap-page="true" />
  <metadata
     id="metadata4694">
    <rdf:RDF>
      <cc:Work
         rdf:about="">
        <dc:format>image/svg+xml</dc:format>
        <dc:type
           rdf:resource="http://purl.org/dc/dcmitype/StillImage" />
        <dc:title></dc:title>
      </cc:Work>
    </rdf:RDF>
  </metadata>
  <g
     inkscape:label="Ebene 1"
     inkscape:groupmode="layer"
     id="layer1"
     transform="translate(-51.121281,-126.91071)">
    <path
       style="fill:#ffcc00;stroke:none;stroke-width:1.27143359px;stroke-linecap:butt;stroke-linejoin:miter;stroke-opacity:1"
       d="m 40,5 c -6.067162,0.9739465 -18.593373,8.543002 -23.199219,15.521484 -4.624138,7.006224 -6.76955,14.783361 -6.8027341,22.21875 l 0.021484,-0.03125 c 0.727758,-0.969061 1.509966,-1.870205 2.339844,-2.705078 1.659756,-1.669745 3.51331,-3.074519 5.521484,-4.228515 0.502554,-0.288793 1.013918,-0.560771 1.535157,-0.81836 1.561599,-0.77172 3.205307,-1.404776 4.912109,-1.904297 1.138253,-0.333126 2.30382,-0.607777 3.494141,-0.824218 2.380024,-0.432772 4.85465,-0.635783 7.382812,-0.623047 h 0.002 c 0.735548,0.0038 1.477084,0.02656 2.220703,0.06641 6.54e-4,3.5e-5 0.0013,-3.5e-5 0.002,0 0.05707,0.0031 0.114768,0.0104 0.171874,0.01367 1.340358,0.07676 2.691775,0.211922 4.048829,0.402344 0.09267,0.013 0.184629,0.02163 0.277343,0.03516 6.43e-4,9.4e-5 0.0013,-9.4e-5 0.002,0 0.753865,0.109981 1.509629,0.236916 2.265624,0.380859 6.34e-4,1.21e-4 0.0013,-1.2e-4 0.002,0 0.756007,0.143973 1.511421,0.305193 2.267578,0.482422 6.23e-4,1.46e-4 0.0013,-1.46e-4 0.002,0 0.756167,0.177259 1.511289,0.372223 2.265625,0.582031 0.0012,3.39e-4 0.0027,-3.39e-4 0.0039,0 0.753744,0.209697 1.505923,0.436246 2.25586,0.677735 0.751742,0.242017 1.50016,0.498229 2.246093,0.771484 5.8e-4,2.13e-4 0.0014,-2.12e-4 0.002,0 0.744753,0.272874 1.48568,0.561929 2.222657,0.865234 5.62e-4,2.32e-4 0.0014,-2.31e-4 0.002,0 0.736982,0.303333 1.47004,0.622021 2.197265,0.955079 0.377368,0.172808 0.748711,0.360347 1.123047,0.541015 0.347717,0.167836 0.698099,0.329371 1.042969,0.503906 5.24e-4,2.66e-4 0.0014,-2.65e-4 0.002,0 0.715493,0.362129 1.423227,0.738466 2.125,1.128907 5.03e-4,2.8e-4 0.0014,-2.8e-4 0.002,0 0.701775,0.390466 1.395959,0.796771 2.082031,1.214843 4.81e-4,2.93e-4 0.0015,-2.92e-4 0.002,0 0.686072,0.418098 1.362861,0.849926 2.03125,1.294922 4.57e-4,3.05e-4 0.0015,-3.04e-4 0.002,0 0.668388,0.445023 1.32784,0.903786 1.976562,1.375 4.32e-4,3.14e-4 0.0015,-3.14e-4 0.002,0 0.648722,0.471241 1.285036,0.956399 1.91211,1.453125 4.06e-4,3.22e-4 0.0035,-3.21e-4 0.0039,0 C 70.267711,33.94491 65.739343,23.351833 55.488281,16.982422 59.389547,30.162882 35.077758,17.504983 40.001953,5 Z"
       id="path26"
       transform="matrix(0.26458333,0,0,0.26458333,51.121281,126.91071)"
       inkscape:connector-curvature="0" />
    <path
       inkscape:connector-curvature="0"
       style="fill:#ffd5d5;stroke:none;stroke-width:0.33640015px;stroke-linecap:butt;stroke-linejoin:miter;stroke-opacity:1"
       d="m 60.436473,135.27294 c -2.67636,-0.0136 -5.12378,0.88663 -6.6642,2.93781 -0.002,0.003 -0.004,0.006 -0.006,0.009 -0.0195,4.42341 2.79449,8.38694 7.39025,8.53023 5.26674,0.16422 8.356,-3.91239 8.47648,-8.10493 -2.65633,-2.10417 -6.08033,-3.35608 -9.19685,-3.37189 z"
       id="path28" />
    <ellipse
       style="fill:#916f6f;stroke:none;stroke-width:0.37041685"
       id="path33"
       cx="59.058781"
       cy="138.81697"
       rx="1.3229167"
       ry="1.3229179" />
    <ellipse
       cy="138.81697"
       cx="64.350441"
       id="circle35"
       style="fill:#916f6f;stroke:none;stroke-width:0.37041694"
       rx="1.3229173"
       ry="1.3229179" />
    <g
       transform="translate(20.958774,-17.160123)"
       aria-label="kinder"
       style="font-style:normal;font-variant:normal;font-weight:normal;font-stretch:normal;font-size:17.76176643px;line-height:1.25;font-family:'Frutiger LT Std';-inkscape-font-specification:'Frutiger LT Std';letter-spacing:0px;word-spacing:0px;fill:#483737;fill-opacity:1;stroke:none;stroke-width:0.44404417"
       id="text67">
      <path
         inkscape:connector-curvature="0"
         d="m 59.904788,160.80974 q -0.347993,-0.0278 -0.821262,-0.33407 -0.459349,-0.32015 -0.542867,-0.32015 -0.153117,0 -0.250555,-0.0557 -0.08352,-0.0557 -0.09744,-0.11136 l -0.02784,-0.0557 q -0.194875,-0.13919 -1.809559,-0.6403 l -0.528948,-0.16704 0.08352,0.83518 q 0.05568,0.47327 0.05568,0.68207 0,0.75166 -0.528948,0.75166 -0.584627,0 -0.723823,-0.66815 -0.139197,-0.66814 -0.236635,-3.14584 -0.111357,-2.26891 -0.208795,-2.79786 -0.292314,-1.50333 -0.292314,-3.89751 0,-0.72383 0.501109,-0.72383 0.389751,0 0.556787,0.43151 0.08352,0.2088 0.194876,1.23886 0.111357,1.03005 0.236635,2.28282 0.125277,1.25278 0.208795,1.75388 l 0.0696,0.44543 1.503326,-1.32237 q 0.111358,-0.0974 0.292313,-0.26447 0.194876,-0.16704 0.292314,-0.25055 0.111357,-0.0974 0.264474,-0.23664 0.167036,-0.1392 0.250554,-0.20879 0.09744,-0.0835 0.222715,-0.18096 0.139197,-0.0974 0.222715,-0.15312 0.08352,-0.0557 0.167036,-0.11135 0.09744,-0.0557 0.167036,-0.0696 0.0696,-0.0278 0.125277,-0.0278 0.222715,0.0278 0.361912,0.20879 0.153117,0.16704 0.153117,0.36192 0,0.16703 -0.08352,0.25055 -0.0696,0.0835 -0.292314,0.27839 -0.222715,0.18096 -0.43151,0.47327 -0.584627,0.82126 -2.491623,2.11579 -0.528948,0.36192 -0.556788,0.54287 0,0.0974 0.167037,0.16704 l 1.684281,0.66814 0.09744,0.0557 q 0.111358,0.0418 0.222715,0.0974 0.125277,0.0418 0.306233,0.12528 0.180956,0.0835 0.347992,0.18095 0.180956,0.0835 0.375832,0.19488 0.208795,0.11136 0.375831,0.22271 0.180956,0.0974 0.334072,0.22272 0.167037,0.12528 0.278394,0.23663 0.125277,0.11136 0.194876,0.23664 0.0696,0.11136 0.0696,0.22271 0,0.2088 -0.125277,0.33408 -0.125277,0.12527 -0.334072,0.12527 z"
         style="font-style:normal;font-variant:normal;font-weight:bold;font-stretch:normal;font-size:13.91968346px;font-family:Purisa;-inkscape-font-specification:'Purisa, Bold';font-variant-ligatures:normal;font-variant-caps:normal;font-variant-numeric:normal;font-feature-settings:normal;text-align:start;writing-mode:lr-tb;text-anchor:start;fill:#483737;stroke-width:0.44404417"
         id="path4658" />
      <path
         inkscape:connector-curvature="0"
         d="m 62.86011,153.26527 q 0.236635,-0.16703 0.45935,-0.16703 0.222715,0 0.375831,0.18095 0.222715,0.41759 0.361912,2.42203 0.153117,2.00443 0.153117,3.74439 0,1.25277 -0.08352,1.41981 -0.278394,0.22272 -0.598547,0.22272 -0.487189,0 -0.598546,-0.29232 -0.0696,-0.22271 -0.222715,-2.89529 -0.139197,-2.6865 -0.139197,-3.59128 0,-0.8491 0.292313,-1.04398 z m -0.153116,-3.2572 q 0.02784,-0.26448 0.222715,-0.43151 0.208795,-0.16704 0.403671,-0.16704 0.194875,0 0.501108,0.18096 0.306233,0.18095 0.306233,0.48719 0,0.33407 -0.167036,0.59854 -0.167036,0.26448 -0.44543,0.26448 -0.292313,0 -0.556787,-0.26448 -0.264474,-0.27839 -0.264474,-0.66814 z"
         style="font-style:normal;font-variant:normal;font-weight:bold;font-stretch:normal;font-size:13.91968346px;font-family:Purisa;-inkscape-font-specification:'Purisa, Bold';font-variant-ligatures:normal;font-variant-caps:normal;font-variant-numeric:normal;font-feature-settings:normal;text-align:start;writing-mode:lr-tb;text-anchor:start;fill:#483737;stroke-width:0.44404417"
         id="path4660" />
      <path
         inkscape:connector-curvature="0"
         d="m 67.171515,153.9195 q 0,-0.72382 0.45935,-0.72382 0.306233,0.0139 0.40367,0.37583 0.09744,0.36191 0.278394,2.03227 0.01392,0.12528 0.01392,0.19488 0.01392,0.0696 0.02784,0.18095 0.01392,0.11136 0.02784,0.2088 l 0.194875,1.58684 0.153117,-0.45935 q 0.292313,-0.90478 0.501108,-1.32237 0.222715,-0.41759 0.807342,-1.18317 1.127494,-1.48941 1.906997,-1.48941 0.515028,0 0.890859,0.57071 0.44543,0.62639 0.542868,1.25277 0.111357,0.62639 0.153116,2.86746 0.02784,1.4198 0.02784,1.72604 0,0.9187 -0.125277,1.25277 -0.125278,0.32015 -0.515029,0.32015 -0.264474,0 -0.347992,-0.1392 -0.08352,-0.15311 -0.08352,-0.59854 0,-0.2088 0.02784,-0.86302 0.02784,-0.65423 0.02784,-1.08574 0,-1.18317 -0.09744,-2.21323 -0.09744,-1.03005 -0.222715,-1.29453 -0.05568,-0.11136 -0.139197,-0.20879 -0.08352,-0.11136 -0.153116,-0.16704 -0.05568,-0.0557 -0.08352,-0.0557 -0.222715,0 -0.918699,0.93262 -0.682065,0.93262 -1.155334,1.907 -0.487189,1.03005 -0.654225,1.50332 -0.153117,0.47327 -0.250555,1.28061 -0.153116,1.29453 -0.250554,1.43373 -0.0696,0.0835 -0.153116,0.0835 -0.208796,-0.0278 -0.44543,-0.29231 -0.125277,-0.1392 -0.194876,-0.348 -0.05568,-0.22271 -0.09744,-0.66814 -0.04176,-0.45935 -0.0696,-0.97438 -0.02784,-0.52895 -0.111357,-1.51724 -0.08352,-1.00222 -0.208796,-2.07404 -0.167036,-1.67036 -0.167036,-2.03227 z"
         style="font-style:normal;font-variant:normal;font-weight:bold;font-stretch:normal;font-size:13.91968346px;font-family:Purisa;-inkscape-font-specification:'Purisa, Bold';font-variant-ligatures:normal;font-variant-caps:normal;font-variant-numeric:normal;font-feature-settings:normal;text-align:start;writing-mode:lr-tb;text-anchor:start;fill:#483737;stroke-width:0.44404417"
         id="path4662" />
      <path
         inkscape:connector-curvature="0"
         d="m 80.769306,155.46458 q -0.807342,-0.47327 -1.099655,-0.47327 -0.194876,0 -1.197093,0.82127 -1.002217,0.82126 -1.211012,1.25277 -0.125278,0.25055 -0.125278,1.07181 0,0.93262 0.167037,1.21102 0.125277,0.19487 0.654225,0.44543 0.542867,0.25055 1.030056,0.25055 0.932619,0 2.422025,-1.25277 1.043977,-0.87694 1.155334,-1.21101 0,-0.348 -0.584627,-1.04398 -0.570707,-0.69598 -1.211012,-1.07182 z m 2.018354,3.70264 q -0.01392,0.0139 -0.292313,0.30623 -0.264474,0.2784 -0.598547,0.55679 -0.320153,0.27839 -0.779502,0.59855 -0.44543,0.32015 -1.043976,0.51502 -0.598547,0.19488 -1.211013,0.19488 -0.528948,0 -1.155334,-0.2088 -1.962675,-0.66814 -1.962675,-2.75609 0,-0.8491 0.292313,-1.61469 0.306233,-0.7795 0.765583,-1.32237 0.473269,-0.55678 1.016137,-0.96045 0.556787,-0.40367 1.071816,-0.59855 0.515028,-0.2088 0.890859,-0.2088 0.43151,0 1.378049,0.50111 0.946538,0.50111 1.33629,0.96046 0.222715,0.2784 0.334072,0.36191 0.05568,-0.48719 0.09744,-3.78615 0.04176,-3.31289 0.180956,-3.64696 0.222715,-0.54287 0.709904,-0.54287 h 0.556787 l -0.111358,5.90195 q -0.04176,2.03227 -0.04176,3.63304 0,2.15755 0.09744,3.09017 0.09744,0.9187 0.09744,1.01613 0,0.29232 -0.153117,0.59855 -0.153116,0.30623 -0.515028,0.30623 -0.44543,0 -0.626386,-0.51502 -0.180956,-0.50111 -0.236634,-1.33629 -0.04176,-0.83519 -0.09744,-1.04398 z"
         style="font-style:normal;font-variant:normal;font-weight:bold;font-stretch:normal;font-size:13.91968346px;font-family:Purisa;-inkscape-font-specification:'Purisa, Bold';font-variant-ligatures:normal;font-variant-caps:normal;font-variant-numeric:normal;font-feature-settings:normal;text-align:start;writing-mode:lr-tb;text-anchor:start;fill:#483737;stroke-width:0.44404417"
         id="path4664" />
      <path
         inkscape:connector-curvature="0"
         d="m 92.107977,155.64554 q 0,-0.11136 -0.612466,-0.57071 -0.44543,-0.33407 -0.640305,-0.41759 -0.180956,-0.0835 -0.528948,-0.0835 -0.695984,0 -1.030057,0.11136 -0.320152,0.0974 -0.682064,0.44543 -1.071816,1.04398 -1.085736,1.35021 0.05568,0.0139 0.236635,0.0139 1.350209,0 3.744395,-0.47327 0.598546,-0.11136 0.598546,-0.37583 z m 1.795639,2.19931 q 0.250555,0 0.250555,0.29231 0,0.32016 -0.403671,0.9187 -0.403671,0.58463 -0.807342,0.94654 -1.559004,1.33629 -3.215447,1.33629 -1.364129,0 -2.463784,-1.07182 -1.099655,-1.07181 -1.099655,-2.95097 0,-0.52895 0.153117,-1.01614 0.292313,-0.86302 1.30845,-1.79563 1.016137,-0.94654 1.948756,-0.94654 0.250554,0 0.737743,0.0418 0.751663,0.0557 1.057896,0.15311 0.320153,0.0835 0.723824,0.34799 0.445429,0.29232 0.807341,0.83519 0.361912,0.52894 0.361912,0.93261 0,0.52895 -0.43151,0.77951 -0.43151,0.25055 -1.461567,0.45935 -1.350209,0.26447 -2.783937,0.34799 l -1.211012,0.0557 v 0.36191 q 0,0.51503 0.222715,0.90478 0.236634,0.38975 0.751663,0.82126 0.737743,0.61247 1.503326,0.61247 0.612466,0 1.29453,-0.36192 0.682065,-0.37583 1.155334,-0.82126 0.487189,-0.44543 0.932619,-0.80734 0.459349,-0.37583 0.668144,-0.37583 z"
         style="font-style:normal;font-variant:normal;font-weight:bold;font-stretch:normal;font-size:13.91968346px;font-family:Purisa;-inkscape-font-specification:'Purisa, Bold';font-variant-ligatures:normal;font-variant-caps:normal;font-variant-numeric:normal;font-feature-settings:normal;text-align:start;writing-mode:lr-tb;text-anchor:start;fill:#483737;stroke-width:0.44404417"
         id="path4666" />
      <path
         inkscape:connector-curvature="0"
         d="m 101.08509,154.40669 q 0.26447,0 0.45934,0.12528 0.19488,0.11135 0.25056,0.22271 0.0696,0.11136 0.0696,0.19488 0,0.27839 -0.64031,0.51502 -0.8491,0.32016 -1.851316,1.57293 -0.988297,1.25277 -1.197093,2.35242 -0.264474,1.40589 -0.44543,1.86524 -0.180955,0.47327 -0.528948,0.47327 -0.139196,0 -0.250554,-0.0418 -0.09744,-0.0278 -0.167036,-0.12527 -0.0696,-0.0974 -0.111358,-0.16704 -0.04176,-0.0696 -0.08352,-0.22272 -0.02784,-0.16703 -0.04176,-0.23663 0,-0.0835 -0.02784,-0.26447 -0.01392,-0.19488 -0.01392,-0.23664 -0.334072,-3.25721 -0.334072,-5.47043 0,-0.45935 0.05568,-0.70991 0.05568,-0.26447 0.278393,-0.45935 0.139197,-0.12528 0.306233,-0.12528 0.180956,0 0.306233,0.15312 0.125278,0.1392 0.125278,0.37583 0,0.51503 0.139196,1.46157 0.153117,0.93262 0.278394,1.46157 0.111357,-0.15312 0.320153,-0.47327 0.528948,-0.86302 1.475486,-1.54509 0.946541,-0.69598 1.628611,-0.69598 z"
         style="font-style:normal;font-variant:normal;font-weight:bold;font-stretch:normal;font-size:13.91968346px;font-family:Purisa;-inkscape-font-specification:'Purisa, Bold';font-variant-ligatures:normal;font-variant-caps:normal;font-variant-numeric:normal;font-feature-settings:normal;text-align:start;writing-mode:lr-tb;text-anchor:start;fill:#483737;stroke-width:0.44404417"
         id="path4668" />
    </g>
  </g>
</svg>
